<?xml version="1.0" encoding="UTF-8"?>
<svg width="70px" height="43px" viewBox="0 0 70 43" version="1.1" xmlns="http://www.w3.org/2000/svg" xmlns:xlink="http://www.w3.org/1999/xlink">
    <!-- Generator: Sketch 61.2 (89653) - https://sketch.com -->
    <title>logo</title>
    <desc>Created with Sketch.</desc>
    <g id="Page-1" stroke="none" stroke-width="1" fill="none" fill-rule="evenodd">
        <g id="CentralPay---Transaction-Summary-+-Payment-Method" transform="translate(-179.000000, -44.000000)">
            <g id="logo" transform="translate(179.000000, 44.000000)">
                <path d="M14.2176988,0.97541264 L9.87179487,0.97541264 C11.2011302,-0.0745873596 12.5304655,-0.541254026 14.2176988,0.97541264 M43.974359,0.97541264 L40.9066621,0.97541264 C41.5713297,0.0420793071 42.3893822,-0.42458736 43.616461,0.508745974 C43.7698458,0.62541264 43.8721024,0.858745974 43.974359,0.97541264 Z" id="Shape" fill="#295135"></path>
                <path d="M40.2336449,0.893229167 L44.9640546,0.893229167 C45.2659957,1.25220353 45.5176132,1.70092147 45.7692308,2.05989583 L35.4025881,2.05989583 C36.9626168,1.70092147 38.4219986,1.88040865 39.9317038,1.52143429 C40.0323508,1.34194712 40.1329978,1.07271635 40.2336449,0.893229167 M8.93242272,0.893229167 L15.8770669,0.893229167 C15.9273904,0.982972756 16.0280374,1.07271635 16.0783609,1.16245994 C16.480949,1.61117788 16.984184,1.88040865 17.4874191,2.05989583 L8.07692308,2.05989583 C8.32854062,1.61117788 8.63048167,1.25220353 8.93242272,0.893229167 Z" id="Shape" fill="#295135"></path>
                <path d="M32.865619,2.6796875 L46.2083293,2.6796875 C46.3611084,3.03866186 46.5138875,3.39763622 46.6666667,3.84635417 L31.6943124,3.84635417 L32.865619,2.6796875 Z M6.84224141,2.6796875 L22.1201539,2.6796875 C22.680344,2.94891827 23.2405342,3.39763622 23.6988715,3.84635417 L6.28205128,3.84635417 C6.43483041,3.48737981 6.63853591,3.12840545 6.84224141,2.6796875 Z" id="Shape" fill="#295135"></path>
                <path d="M6.63445904,3.57291667 L26.4699812,3.57291667 C27.8292683,3.77904647 29.4906191,3.77904647 30.5478424,3.57291667 L47.3123827,3.57291667 C47.4130707,3.84775641 47.5137586,4.12259615 47.5641026,4.46614583 L6.28205128,4.46614583 C6.38273921,4.12259615 6.53377111,3.84775641 6.63445904,3.57291667" id="Path" fill="#295135"></path>
                <path d="M5.58594945,4.46614583 L47.3627685,4.46614583 C47.413102,4.74098558 47.4634355,5.01582532 47.5641026,5.359375 L5.38461538,5.359375 C5.4349489,5.08453526 5.48528242,4.80969551 5.58594945,4.46614583" id="Path" fill="#295135"></path>
                <path d="M4.63993453,6.25260417 L47.5641026,6.25260417 L47.5641026,7.14583333 L4.48717949,7.14583333 C4.53809784,6.87099359 4.58901618,6.52744391 4.63993453,6.25260417" id="Path" fill="#295135"></path>
                <path d="M4.58853695,7.14583333 L47.5641026,7.14583333 L47.5641026,8.0390625 L4.48717949,8.0390625 C4.53785822,7.76422276 4.58853695,7.48938301 4.58853695,7.14583333" id="Path" fill="#295135"></path>
                <path d="M4.48717949,8.93229167 L47.5641026,8.93229167 L47.5641026,9.27584135 L47.4628642,9.82552083 L11.6751032,9.82552083 L11.6751032,9.82552083 L4.48717949,9.82552083 C4.48717949,9.55068109 4.48717949,9.20713141 4.48717949,8.93229167" id="Path" fill="#295135"></path>
                <path d="M4.48717949,9.82552083 L11.6666667,9.82552083 L11.4585656,10.71875 L4.48717949,10.71875 C4.48717949,10.3752003 4.48717949,10.1003606 4.48717949,9.82552083" id="Path" fill="#295135"></path>
                <polygon id="Path" fill="#295135" points="4.48717949 11.6119792 10.7692308 11.6119792 10.5276134 12.5052083 4.53550296 12.5052083"></polygon>
                <path d="M4.48717949,12.5052083 L10.7692308,12.5052083 L10.5598291,13.3984375 L4.48717949,13.3984375 C4.48717949,13.0548878 4.48717949,12.7800481 4.48717949,12.5052083" id="Path" fill="#295135"></path>
                <path d="M4.48717949,14.2916667 L9.87179487,14.2916667 L9.67948718,15.1848958 L4.48717949,15.1848958 C4.48717949,14.9100561 4.48717949,14.6352163 4.48717949,14.2916667" id="Path" fill="#295135"></path>
                <path d="M4.7275641,15.1848958 L9.87179487,15.1848958 L9.67948718,16.078125 L4.48717949,16.078125 C4.58333333,15.7345753 4.63141026,15.3910256 4.7275641,15.1848958" id="Path" fill="#295135"></path>
                <path d="M3.83012821,16.9713542 L8.97435897,16.9713542 L8.78205128,17.8645833 L3.58974359,17.8645833 C3.68589744,17.5897436 3.78205128,17.2461939 3.83012821,16.9713542" id="Path" fill="#295135"></path>
                <path d="M3.87068004,17.8645833 L8.97435897,17.8645833 L8.787068,18.7578125 L3.58974359,18.7578125 C3.68338907,18.4142628 3.77703456,18.1394231 3.87068004,17.8645833" id="Path" fill="#295135"></path>
                <path d="M3.05876068,18.7578125 L8.97435897,18.7578125 L8.71260684,19.6510417 L2.69230769,19.6510417 C2.79700855,19.3762019 2.9017094,19.1013622 3.05876068,18.7578125" id="Path" fill="#295135"></path>
                <path d="M2.19059156,20.5442708 L8.07692308,20.5442708 L7.87906319,21.4375 L1.79487179,21.4375 C1.94326671,21.1626603 2.09166162,20.8191106 2.19059156,20.5442708" id="Path" fill="#295135"></path>
                <polygon id="Path" fill="#295135" points="1.79487179 21.8841146 8.07692308 21.8841146 8.07692308 21.8841146"></polygon>
                <path d="M0.050247062,26.796875 L38.5897436,26.796875 C38.4390024,27.0717147 38.3385083,27.3465545 38.1877671,27.6901042 L0,27.6901042 C0.050247062,27.4152644 0.050247062,27.1404247 0.050247062,26.796875" id="Path" fill="#295135"></path>
                <path d="M0,28.5833333 L38.5897436,28.5833333 C38.4872476,28.8581731 38.3847516,29.2017228 38.2310076,29.4765625 L0,29.4765625 C0,29.2017228 0,28.8581731 0,28.5833333" id="Path" fill="#295135"></path>
                <path d="M0,29.4765625 L37.6923077,29.4765625 C37.5904366,29.7514022 37.4376299,30.0949519 37.3357588,30.3697917 L0,30.3697917 C0,30.026242 0,29.7514022 0,29.4765625" id="Path" fill="#295135"></path>
                <path d="M35.629194,31.2630208 L36.7948718,31.2630208 C36.6935085,31.442508 36.6428269,31.7117388 36.5414636,31.891226 C36.2373737,31.6219952 35.9332839,31.442508 35.629194,31.2630208 M0,31.2630208 L32.8417038,31.2630208 C32.3348873,31.5322516 31.8787526,31.891226 31.4732994,32.4296875 L0,32.4296875 C0,32.0707131 0,31.6219952 0,31.2630208 Z" id="Shape" fill="#295135"></path>
                <path d="M0,32.15625 L30.5128205,32.15625 C30.2598121,32.4310897 30.0068036,32.7059295 29.7537951,33.0494792 L0,33.0494792 C0,32.7059295 0,32.4310897 0,32.15625" id="Path" fill="#295135"></path>
                <path d="M7.17948718,33.9427083 L28.7179487,33.9427083 L28.5180558,34.2175481 L28.3181629,34.8359375 L8.87857695,34.8359375 C8.62871081,34.5610978 8.37884467,34.3549679 8.07900529,34.2175481 C7.77916592,34.0801282 7.47932655,34.0114183 7.17948718,33.9427083" id="Path" fill="#295135"></path>
                <path d="M9.87179487,34.8359375 L28.7179487,34.8359375 C28.6152449,35.1107772 28.512541,35.385617 28.3584853,35.7291667 L10.4880179,35.7291667 C10.3339621,35.385617 10.1285545,35.1107772 9.87179487,34.8359375" id="Path" fill="#295135"></path>
                <path d="M10.7692308,35.7291667 L27.8205128,35.7291667 C27.7181027,36.0040064 27.5644876,36.3475561 27.4108724,36.6223958 L11.0764611,36.6223958 C10.974051,36.3475561 10.8716409,36.0727163 10.7692308,35.7291667" id="Path" fill="#295135"></path>
                <path d="M11.6666667,37.515625 L26.9230769,37.515625 C26.7725202,37.7904647 26.6219636,38.1340144 26.4714069,38.4088542 L12.0681511,38.4088542 C11.96778,38.0653045 11.8172233,37.7904647 11.6666667,37.515625" id="Path" fill="#295135"></path>
                <path d="M12.5641026,38.4088542 L26.025641,38.4088542 C25.8247225,38.7524038 25.6238041,39.0272436 25.4228856,39.3020833 L13.166858,39.3020833 C12.9157099,39.0272436 12.765021,38.7524038 12.5641026,38.4088542" id="Path" fill="#295135"></path>
                <path d="M13.4615385,40.1953125 L24.2307692,40.1953125 C23.7799642,40.5388622 23.3291592,40.744992 22.9284436,40.6075721 C22.8282648,40.6075721 22.6779964,40.744992 22.5277281,41.0885417 L14.313059,41.0885417 C13.9624329,40.744992 13.7119857,40.4701522 13.4615385,40.1953125" id="Path" fill="#295135"></path>
                <path d="M15.2564103,41.0885417 L22.4358974,41.0885417 C22.224736,41.4320913 21.9607843,41.775641 21.6440422,41.9817708 L16.4177979,41.9817708 C16.3650075,41.9817708 16.3122172,41.9130609 16.2594268,41.9130609 C15.8898944,41.6382212 15.5731523,41.3633814 15.2564103,41.0885417" id="Path" fill="#295135"></path>
                <path d="M17.0512821,42.2274089 L20.6410256,42.2274089 C19.4988345,42.7633464 18.3022533,42.7633464 17.0512821,42.2274089" id="Path" fill="#295135"></path>
                <polygon id="Path" fill="#9C760F" points="13.1550522 10.7688652 8.8899376 22.9468509 0 22.9468509 0.0513869226 25.9036458 12.2300876 25.9036458 14.3369514 20.3909774 15.0049814 20.4410925 15.5702375 25.8535307 19.5784175 25.8535307 25.1282051 10.71875 21.0172513 10.71875 18.9617744 16.682455 18.3451314 16.682455 16.9576844 10.7688652"></polygon>
                <polygon id="Path" fill="#9C760F" points="27.7322404 10.7690311 22.4358974 25.9036458 26.3100743 25.9036458 31.4102564 10.71875"></polygon>
                <polygon id="Path" fill="#9C760F" points="51.8668774 10.7690311 46.7035476 22.7862169 42.5728837 22.7862169 41.2820513 25.9036458 49.3884791 25.9036458 54.6034422 13.7858978 58.889006 13.7858978 60.1282051 10.71875"></polygon>
                <polygon id="Path" fill="#9C760F" points="61.7386723 10.7690311 56.5753425 22.7862169 52.4446786 22.7862169 51.1538462 25.9036458 59.260274 25.9036458 64.4752371 13.7858978 68.7608008 13.7858978 70 10.71875"></polygon>
                <path d="M33.8466748,22.6642014 L35.9379999,22.6642014 C37.4318036,22.6642014 38.2782924,22.0568056 38.4774662,20.8926302 C38.5272597,20.4876997 38.5272597,20.1333854 38.3280859,19.9309201 C38.1787055,19.6778385 37.7305644,19.5766059 37.0832495,19.5766059 L34.9421308,19.5766059 L33.8466748,22.6642014 Z M36.0375869,16.6914757 L37.3820102,16.6914757 C37.9795317,16.6914757 38.4276728,16.6408594 38.7264335,16.5396267 C39.0749877,16.4383941 39.3737485,16.2359288 39.6227157,15.9322309 C39.871683,15.628533 40.0210634,15.3248351 40.0708569,15.0211372 C40.1206503,14.6668229 40.0708569,14.363125 39.9214765,14.1606597 C39.7720961,13.9581944 39.3737485,13.8569618 38.7264335,13.8569618 L37.033456,13.8569618 L36.0375869,16.6914757 Z M34.195229,10.71875 L40.0708569,10.71875 C40.7679652,10.71875 41.3654867,10.7693663 41.8136278,10.8199826 C42.261769,10.9212153 42.6601166,11.0730642 43.0584643,11.3767622 C43.4070185,11.6804601 43.7057792,12.0853906 43.8551596,12.5915538 C44.0045399,13.097717 44.0045399,13.6544965 43.904953,14.2618924 C43.7555727,15.0211372 43.4568119,15.7297656 42.9588773,16.4383941 C42.4609428,17.0964063 41.7638344,17.6025694 40.8675522,17.9062674 L40.8675522,17.9568837 C42.162182,18.4630469 42.6103231,19.5259896 42.3115624,21.1457118 C42.1123886,22.3605035 41.4650736,23.4234462 40.4692045,24.4357726 C39.4733354,25.3974826 38.1787055,25.9036458 36.5853149,25.9036458 L28.7179487,25.9036458 L34.195229,10.71875 Z" id="Shape" fill="#9C760F"></path>
            </g>
        </g>
    </g>
</svg>